HIERARCHY
ROOT hip
{
  OFFSET 0 90.174 2.4664
  CHANNELS 6 Xposition Yposition Zposition Zrotation Xrotation Yrotation
  JOINT abdomen
  {
    OFFSET 0 -1.186 -1.5018
    CHANNELS 6 Xposition Yposition Zposition Zrotation Xrotation Yrotation
    JOINT abdomen2
    {
      OFFSET 0 9.964 0.2134
      CHANNELS 6 Xposition Yposition Zposition Zrotation Xrotation Yrotation
      JOINT chest
      {
        OFFSET 0 13.134 -3.2573
        CHANNELS 6 Xposition Yposition Zposition Zrotation Xrotation Yrotation
        JOINT neck
        {
          OFFSET 0 20.686 -1.6905
          CHANNELS 6 Xposition Yposition Zposition Zrotation Xrotation Yrotation
          JOINT head
          {
            OFFSET 0 7.238 -0.1237
            CHANNELS 6 Xposition Yposition Zposition Zrotation Xrotation Yrotation
            End Site
            {
              OFFSET 0 0 0
            }
          }
        }
        JOINT lCollar
        {
          OFFSET 1.7069 20.075 5.0056
          CHANNELS 6 Xposition Yposition Zposition Zrotation Xrotation Yrotation
          JOINT lShldr
          {
            OFFSET 13.6458 -0.047 -4.849
            CHANNELS 6 Xposition Yposition Zposition Zrotation Xrotation Yrotation
            JOINT lForeArm
            {
              OFFSET 28.3255 -0.9759 2.2888
              CHANNELS 6 Xposition Yposition Zposition Zrotation Xrotation Yrotation
              JOINT lHand
              {
                OFFSET 22.1583 -0.53 10.8316
                CHANNELS 6 Xposition Yposition Zposition Zrotation Xrotation Yrotation
                JOINT lThumb1
                {
                  OFFSET 0.786 0.112 2.5817
                  CHANNELS 6 Xposition Yposition Zposition Zrotation Xrotation Yrotation
                  JOINT lThumb2
                  {
                    OFFSET 0.3601 -0.878 4.2331
                    CHANNELS 6 Xposition Yposition Zposition Zrotation Xrotation Yrotation
                    JOINT lThumb2_End
                    {
                      OFFSET 1.8127 -1.216 2.2227
                      CHANNELS 6 Xposition Yposition Zposition Zrotation Xrotation Yrotation
                      End Site
                      {
                        OFFSET 0.0181 -0.0122 0.0222
                      }
                    }
                  }
                }
                JOINT lCarpal1
                {
                  OFFSET 0.9571 1.114 1.7695
                  CHANNELS 6 Xposition Yposition Zposition Zrotation Xrotation Yrotation
                  JOINT lIndex1
                  {
                    OFFSET 4.1246 0.487 4.1451
                    CHANNELS 6 Xposition Yposition Zposition Zrotation Xrotation Yrotation
                    JOINT lIndex2
                    {
                      OFFSET 3.4052 -1.454 2.7682
                      CHANNELS 6 Xposition Yposition Zposition Zrotation Xrotation Yrotation
                      JOINT lIndex2_End
                      {
                        OFFSET 1.4531 -1.795 1.2713
                        CHANNELS 6 Xposition Yposition Zposition Zrotation Xrotation Yrotation
                        End Site
                        {
                          OFFSET 0.0145 -0.0179 0.0127
                        }
                      }
                    }
                  }
                  JOINT lMid1
                  {
                    OFFSET 5.6954 0.21 2.1184
                    CHANNELS 6 Xposition Yposition Zposition Zrotation Xrotation Yrotation
                    JOINT lMid2
                    {
                      OFFSET 3.9766 -1.54 2.3863
                      CHANNELS 6 Xposition Yposition Zposition Zrotation Xrotation Yrotation
                      JOINT lMid2_End
                      {
                        OFFSET 1.4042 -1.926 1.125
                        CHANNELS 6 Xposition Yposition Zposition Zrotation Xrotation Yrotation
                        End Site
                        {
                          OFFSET 0.014 -0.0193 0.0113
                        }
                      }
                    }
                  }
                }
                JOINT lCarpal2
                {
                  OFFSET 2.0956 0.66 -0.3894
                  CHANNELS 6 Xposition Yposition Zposition Zrotation Xrotation Yrotation
                  JOINT lRing1
                  {
                    OFFSET 5.0395 -0.09 2.4971
                    CHANNELS 6 Xposition Yposition Zposition Zrotation Xrotation Yrotation
                    JOINT lRing2
                    {
                      OFFSET 3.7921 -1.552 1.4806
                      CHANNELS 6 Xposition Yposition Zposition Zrotation Xrotation Yrotation
                      JOINT lRing2_End
                      {
                        OFFSET 1.4655 -1.808 0.9609
                        CHANNELS 6 Xposition Yposition Zposition Zrotation Xrotation Yrotation
                        End Site
                        {
                          OFFSET 0.0147 -0.0181 0.0096
                        }
                      }
                    }
                  }
                  JOINT lPinky1
                  {
                    OFFSET 4.9141 -1.269 0.3591
                    CHANNELS 6 Xposition Yposition Zposition Zrotation Xrotation Yrotation
                    JOINT lPinky2
                    {
                      OFFSET 3.1477 -1.685 0.8462
                      CHANNELS 6 Xposition Yposition Zposition Zrotation Xrotation Yrotation
                      JOINT lPinky2_End
                      {
                        OFFSET 0.8055 -1.585 0.7955
                        CHANNELS 6 Xposition Yposition Zposition Zrotation Xrotation Yrotation
                        End Site
                        {
                          OFFSET 0.0081 -0.0158 0.008
                        }
                      }
                    }
                  }
                }
              }
            }
          }
        }
        JOINT rCollar
        {
          OFFSET -1.7069 20.075 5.0056
          CHANNELS 6 Xposition Yposition Zposition Zrotation Xrotation Yrotation
          JOINT rShldr
          {
            OFFSET -13.6458 -0.047 -4.849
            CHANNELS 6 Xposition Yposition Zposition Zrotation Xrotation Yrotation
            JOINT rForeArm
            {
              OFFSET -28.3255 -0.9759 2.2888
              CHANNELS 6 Xposition Yposition Zposition Zrotation Xrotation Yrotation
              JOINT rHand
              {
                OFFSET -22.1583 -0.53 10.8316
                CHANNELS 6 Xposition Yposition Zposition Zrotation Xrotation Yrotation
                JOINT rThumb1
                {
                  OFFSET -0.786 0.112 2.5817
                  CHANNELS 6 Xposition Yposition Zposition Zrotation Xrotation Yrotation
                  JOINT rThumb2
                  {
                    OFFSET -0.3601 -0.878 4.2331
                    CHANNELS 6 Xposition Yposition Zposition Zrotation Xrotation Yrotation
                    JOINT rThumb2_End
                    {
                      OFFSET -1.8127 -1.216 2.2227
                      CHANNELS 6 Xposition Yposition Zposition Zrotation Xrotation Yrotation
                      End Site
                      {
                        OFFSET -0.0181 -0.0122 0.0222
                      }
                    }
                  }
                }
                JOINT rCarpal1
                {
                  OFFSET -0.9571 1.114 1.7695
                  CHANNELS 6 Xposition Yposition Zposition Zrotation Xrotation Yrotation
                  JOINT rIndex1
                  {
                    OFFSET -4.1246 0.487 4.1451
                    CHANNELS 6 Xposition Yposition Zposition Zrotation Xrotation Yrotation
                    JOINT rIndex2
                    {
                      OFFSET -3.4052 -1.454 2.7682
                      CHANNELS 6 Xposition Yposition Zposition Zrotation Xrotation Yrotation
                      JOINT rIndex2_End
                      {
                        OFFSET -1.4531 -1.795 1.2713
                        CHANNELS 6 Xposition Yposition Zposition Zrotation Xrotation Yrotation
                        End Site
                        {
                          OFFSET -0.0145 -0.018 0.0127
                        }
                      }
                    }
                  }
                  JOINT rMid1
                  {
                    OFFSET -5.6954 0.21 2.1184
                    CHANNELS 6 Xposition Yposition Zposition Zrotation Xrotation Yrotation
                    JOINT rMid2
                    {
                      OFFSET -3.9766 -1.54 2.3863
                      CHANNELS 6 Xposition Yposition Zposition Zrotation Xrotation Yrotation
                      JOINT rMid2_End
                      {
                        OFFSET -1.4042 -1.926 1.125
                        CHANNELS 6 Xposition Yposition Zposition Zrotation Xrotation Yrotation
                        End Site
                        {
                          OFFSET -0.014 -0.0193 0.0113
                        }
                      }
                    }
                  }
                }
                JOINT rCarpal2
                {
                  OFFSET -2.0956 0.66 -0.3894
                  CHANNELS 6 Xposition Yposition Zposition Zrotation Xrotation Yrotation
                  JOINT rRing1
                  {
                    OFFSET -5.0395 -0.09 2.4971
                    CHANNELS 6 Xposition Yposition Zposition Zrotation Xrotation Yrotation
                    JOINT rRing2
                    {
                      OFFSET -3.7921 -1.552 1.4806
                      CHANNELS 6 Xposition Yposition Zposition Zrotation Xrotation Yrotation
                      JOINT rRing2_End
                      {
                        OFFSET -1.4655 -1.808 0.9609
                        CHANNELS 6 Xposition Yposition Zposition Zrotation Xrotation Yrotation
                        End Site
                        {
                          OFFSET -0.0147 -0.0181 0.0096
                        }
                      }
                    }
                  }
                  JOINT rPinky1
                  {
                    OFFSET -4.9141 -1.269 0.3592
                    CHANNELS 6 Xposition Yposition Zposition Zrotation Xrotation Yrotation
                    JOINT rPinky2
                    {
                      OFFSET -3.1477 -1.685 0.8462
                      CHANNELS 6 Xposition Yposition Zposition Zrotation Xrotation Yrotation
                      JOINT rPinky2_End
                      {
                        OFFSET -0.8055 -1.585 0.7955
                        CHANNELS 6 Xposition Yposition Zposition Zrotation Xrotation Yrotation
                        End Site
                        {
                          OFFSET -0.0081 -0.0158 0.008
                        }
                      }
                    }
                  }
                }
              }
            }
          }
        }
      }
    }
  }
  JOINT lThigh
  {
    OFFSET 8.367 -8.2066 0.5982
    CHANNELS 6 Xposition Yposition Zposition Zrotation Xrotation Yrotation
    JOINT lShin
    {
      OFFSET 2.1923 -43.463 -0.4932
      CHANNELS 6 Xposition Yposition Zposition Zrotation Xrotation Yrotation
      JOINT lFoot
      {
        OFFSET 0.7333 -45.8593 -2.6451
        CHANNELS 6 Xposition Yposition Zposition Zrotation Xrotation Yrotation
        End Site
        {
          OFFSET 2.6618 -4.2699 12.3931
        }
      }
    }
  }
  JOINT rThigh
  {
    OFFSET -8.367 -8.2066 0.5982
    CHANNELS 6 Xposition Yposition Zposition Zrotation Xrotation Yrotation
    JOINT rShin
    {
      OFFSET -2.1923 -43.463 -0.4931
      CHANNELS 6 Xposition Yposition Zposition Zrotation Xrotation Yrotation
      JOINT rFoot
      {
        OFFSET -0.7333 -45.8593 -2.6451
        CHANNELS 6 Xposition Yposition Zposition Zrotation Xrotation Yrotation
        End Site
        {
          OFFSET -2.6618 -4.2699 12.3931
        }
      }
    }
  }
}
MOTION
Frames:	4
Frame Time:	0.0333333
0 90.174 2.4664 0 0 -0 0 -1.186 -1.5018 0 0 -0 0 9.964 0.2134 0 0 -0 0 13.134 -3.2573 0 0 -0 0 20.686 -1.6905 0 0 -0 0 7.238 -0.1237 0 0 -0 1.7069 20.075 5.0056 0 0 -0 13.6458 -0.047 -4.849 1.66051 0.0835086 5.75766 28.3255 -0.9759 2.2888 -0.0175111 0.895433 15.7816 22.1583 -0.53 10.8316 7.95139e-016 -1.98785e-016 -0 0.786 0.112 2.5817 5.46658e-016 -3.97569e-016 -0 0.3601 -0.878 4.2331 5.96354e-016 0 -0 1.8127 -1.216 2.2227 3.97569e-016 1.98785e-016 9.54166e-015 0.9571 1.114 1.7695 1.49089e-016 -3.97569e-016 -0 4.1246 0.487 4.1451 6.4605e-016 0 3.18055e-015 3.4052 -1.454 2.7682 5.96354e-016 0 3.18055e-015 1.4531 -1.795 1.2713 8.94531e-016 -1.98785e-016 6.36111e-015 5.6954 0.21 2.1184 6.4605e-016 0 3.18055e-015 3.9766 -1.54 2.3863 5.96354e-016 0 3.18055e-015 1.4042 -1.926 1.125 8.94531e-016 -1.98785e-016 6.36111e-015 2.0956 0.66 -0.3894 1.49089e-016 -3.97569e-016 -0 5.0395 -0.09 2.4971 6.4605e-016 0 3.18055e-015 3.7921 -1.552 1.4806 5.96354e-016 0 3.18055e-015 1.4655 -1.808 0.9609 8.94531e-016 -1.98785e-016 6.36111e-015 4.9141 -1.269 0.3591 6.4605e-016 0 3.18055e-015 3.1477 -1.685 0.8462 5.96354e-016 0 3.18055e-015 0.8055 -1.585 0.7955 8.94531e-016 -1.98785e-016 6.36111e-015 -1.7069 20.075 5.0056 0 0 -0 -13.6458 -0.047 -4.849 -1.4496 0.0636048 -5.0245 -28.3255 -0.9759 2.2888 -1.74811 1.20616 -16.8394 -22.1583 -0.53 10.8316 -1.19271e-015 1.98785e-016 -3.18055e-015 -0.786 0.112 2.5817 -3.97569e-016 1.98785e-016 -3.18055e-015 -0.3601 -0.878 4.2331 -2.98177e-016 1.98785e-016 -3.18055e-015 -1.8127 -1.216 2.2227 -2.98177e-016 3.97569e-016 -0 -0.9571 1.114 1.7695 4.96962e-016 0 -6.36111e-015 -4.1246 0.487 4.1451 -9.93923e-017 3.97569e-016 -0 -3.4052 -1.454 2.7682 -8.94531e-016 5.96354e-016 -0 -1.4531 -1.795 1.2713 -3.97569e-016 3.97569e-016 -0 -5.6954 0.21 2.1184 -9.93923e-017 3.97569e-016 -0 -3.9766 -1.54 2.3863 -8.94531e-016 5.96354e-016 -0 -1.4042 -1.926 1.125 -3.97569e-016 3.97569e-016 -0 -2.0956 0.66 -0.3894 4.96962e-016 0 -6.36111e-015 -5.0395 -0.09 2.4971 -9.93923e-017 3.97569e-016 -0 -3.7921 -1.552 1.4806 -8.94531e-016 5.96354e-016 -0 -1.4655 -1.808 0.9609 -3.97569e-016 3.97569e-016 -0 -4.9141 -1.269 0.3592 -9.93923e-017 3.97569e-016 -0 -3.1477 -1.685 0.8462 -8.94531e-016 5.96354e-016 -0 -0.8055 -1.585 0.7955 -3.97569e-016 3.97569e-016 -0 8.367 -8.2066 0.5982 -4.66115 -1.03232 0.120763 2.1923 -43.463 -0.4932 0.00990601 1.55097 0.177175 0.7333 -45.8593 -2.6451 4.65196 -0.54114 -0.255042 -8.367 -8.2066 0.5982 4.66115 -1.03222 -0.120763 -2.1923 -43.463 -0.4931 -0.00990459 1.5509 -0.177176 -0.7333 -45.8593 -2.6451 -4.65196 -0.541171 0.255041 
1.72849 3.79805 -9.64883 -122.359 -89.9975 -75.3593 -2.22045e-016 -1.186 -1.5018 -1.38986 12.1879 -9.48987 0 9.964 0.2134 -0.670915 24.4347 -19.3553 0 13.134 -3.2573 -0.67093 24.4347 -19.3553 -3.55271e-015 20.686 -1.6905 -0.68115 18.0886 12.0764 0 7.238 -0.1237 -4.38463 -0.133789 0.0666275 1.7069 20.075 5.0056 -23.003 -0.392286 2.2347 13.6458 -0.047 -4.849 -13.9325 0.944124 2.45011 28.3255 -0.9759 2.2888 -68.0359 7.04632 -65.327 22.1583 -0.53 10.8316 -6.51219 2.57105 0.0272823 0.786 0.112 2.5817 7.01797e-007 -4.11832e-006 5.72709e-007 0.3601 -0.878 4.2331 -5.78128e-007 -3.35412e-007 -5.24112e-007 1.8127 -1.216 2.2227 3.18055e-015 3.97569e-015 4.37326e-015 0.9571 1.114 1.7695 6.36111e-015 -5.56597e-015 1.59028e-015 4.1246 0.487 4.1451 7.01797e-007 -4.11832e-006 5.72709e-007 3.4052 -1.454 2.7682 -5.78128e-007 -3.35412e-007 -5.24112e-007 1.4531 -1.795 1.2713 3.18055e-015 3.97569e-015 4.37326e-015 5.6954 0.21 2.1184 7.01797e-007 -4.11832e-006 5.72709e-007 3.9766 -1.54 2.3863 -5.78128e-007 -3.35412e-007 -5.24112e-007 1.4042 -1.926 1.125 3.18055e-015 3.97569e-015 4.37326e-015 2.0956 0.66 -0.3894 6.36111e-015 -5.56597e-015 1.59028e-015 5.0395 -0.09 2.4971 7.01797e-007 -4.11832e-006 5.72709e-007 3.7921 -1.552 1.4806 -5.78128e-007 -3.35412e-007 -5.24112e-007 1.4655 -1.808 0.9609 3.18055e-015 3.97569e-015 4.37326e-015 4.9141 -1.269 0.3591 7.01797e-007 -4.11832e-006 5.72709e-007 3.1477 -1.685 0.8462 -5.78128e-007 -3.35412e-007 -5.24112e-007 0.8055 -1.585 0.7955 3.18055e-015 3.97569e-015 4.37326e-015 -1.7069 20.075 5.0056 -19.6485 -5.93961 1.54194 -13.6458 -0.047 -4.849 -29.4888 -5.60978 0.133707 -28.3255 -0.9759 2.2888 57.2912 -43.7648 156.619 -22.1583 -0.53 10.8316 6.49223 2.60876 0.0253965 -0.786 0.112 2.5817 4.41391e-032 3.18055e-015 -7.95139e-016 -0.3601 -0.878 4.2331 -3.18055e-015 1.59028e-015 7.95139e-016 -1.8127 -1.216 2.2227 8.82781e-032 3.18055e-015 -1.59028e-015 -0.9571 1.114 1.7695 4.41391e-032 3.18055e-015 -7.95139e-016 -4.1246 0.487 4.1451 -3.18055e-015 1.59028e-015 7.95139e-016 -3.4052 -1.454 2.7682 8.82781e-032 3.18055e-015 -1.59028e-015 -1.4531 -1.795 1.2713 2.20695e-032 1.59028e-015 -7.95139e-016 -5.6954 0.21 2.1184 -3.18055e-015 1.59028e-015 7.95139e-016 -3.9766 -1.54 2.3863 8.82781e-032 3.18055e-015 -1.59028e-015 -1.4042 -1.926 1.125 2.20695e-032 1.59028e-015 -7.95139e-016 -2.0956 0.66 -0.3894 4.41391e-032 3.18055e-015 -7.95139e-016 -5.0395 -0.09 2.4971 -3.18055e-015 1.59028e-015 7.95139e-016 -3.7921 -1.552 1.4806 8.82781e-032 3.18055e-015 -1.59028e-015 -1.4655 -1.808 0.9609 2.20695e-032 1.59028e-015 -7.95139e-016 -4.9141 -1.269 0.3592 -3.18055e-015 1.59028e-015 7.95139e-016 -3.1477 -1.685 0.8462 8.82781e-032 3.18055e-015 -1.59028e-015 -0.8055 -1.585 0.7955 2.20695e-032 1.59028e-015 -7.95139e-016 8.367 -8.2066 0.5982 10.5726 -14.8449 2.89832 2.1923 -43.463 -0.4932 -6.37962 12.9182 2.04158 0.7333 -45.8593 -2.6451 9.46508 13.6265 0.321652 -8.367 -8.2066 0.5982 -41.0132 -18.2684 -47.5548 -2.1923 -43.463 -0.4931 -165.036 68.9613 158.73 -0.7333 -45.8593 -2.6451 -11.28 32.7505 -1.92067 
1.72836 3.79838 -9.64973 -122.359 -89.9975 -75.3593 -2.22045e-016 -1.186 -1.5018 -1.38986 12.1879 -9.48987 -4.44089e-016 9.964 0.2134 -0.670929 24.4347 -19.3553 0 13.134 -3.2573 -0.670928 24.4347 -19.3553 5.32907e-015 20.686 -1.6905 -0.679507 18.1815 12.0728 -5.32907e-015 7.238 -0.1237 -4.32287 0.171609 0.425585 1.7069 20.075 5.0056 -23.003 -0.392311 2.23471 13.6458 -0.047 -4.849 -13.9325 0.944123 2.45012 28.3255 -0.9759 2.2888 -68.0359 7.04631 -65.327 22.1583 -0.53 10.8316 -6.51219 2.57104 0.0273128 0.786 0.112 2.5817 1.73438e-006 1.00624e-006 1.57234e-006 0.3601 -0.878 4.2331 -2.31251e-006 -1.34165e-006 -2.09645e-006 1.8127 -1.216 2.2227 -5.78128e-007 -3.35412e-007 -5.24112e-007 0.9571 1.114 1.7695 6.36111e-015 5.1684e-015 2.78299e-015 4.1246 0.487 4.1451 1.73438e-006 1.00624e-006 1.57234e-006 3.4052 -1.454 2.7682 -2.31251e-006 -1.34165e-006 -2.09645e-006 1.4531 -1.795 1.2713 -5.78128e-007 -3.35412e-007 -5.24112e-007 5.6954 0.21 2.1184 1.73438e-006 1.00624e-006 1.57234e-006 3.9766 -1.54 2.3863 -2.31251e-006 -1.34165e-006 -2.09645e-006 1.4042 -1.926 1.125 -5.78128e-007 -3.35412e-007 -5.24112e-007 2.0956 0.66 -0.3894 6.36111e-015 5.1684e-015 2.78299e-015 5.0395 -0.09 2.4971 1.73438e-006 1.00624e-006 1.57234e-006 3.7921 -1.552 1.4806 -2.31251e-006 -1.34165e-006 -2.09645e-006 1.4655 -1.808 0.9609 -5.78128e-007 -3.35412e-007 -5.24112e-007 4.9141 -1.269 0.3591 1.73438e-006 1.00624e-006 1.57234e-006 3.1477 -1.685 0.8462 -2.31251e-006 -1.34165e-006 -2.09645e-006 0.8055 -1.585 0.7955 -5.78128e-007 -3.35412e-007 -5.24112e-007 -1.7069 20.075 5.0056 -19.6485 -5.93961 1.54195 -13.6458 -0.047 -4.849 -29.4888 -5.60979 0.133709 -28.3255 -0.9759 2.2888 57.2912 -43.7648 156.619 -22.1583 -0.53 10.8316 6.49223 2.60879 0.0253872 -0.786 0.112 2.5817 1.21671e-006 1.54349e-007 2.48639e-006 -0.3601 -0.878 4.2331 3.56286e-006 1.43017e-007 -9.62048e-007 -1.8127 -1.216 2.2227 -3.18055e-015 0 -1.59028e-015 -0.9571 1.114 1.7695 3.18055e-015 1.59028e-015 -3.18055e-015 -4.1246 0.487 4.1451 1.21671e-006 1.54349e-007 2.48639e-006 -3.4052 -1.454 2.7682 3.56286e-006 1.43017e-007 -9.62048e-007 -1.4531 -1.795 1.2713 2.20695e-032 1.59028e-015 -7.95139e-016 -5.6954 0.21 2.1184 1.21671e-006 1.54349e-007 2.48639e-006 -3.9766 -1.54 2.3863 3.56286e-006 1.43017e-007 -9.62048e-007 -1.4042 -1.926 1.125 2.20695e-032 1.59028e-015 -7.95139e-016 -2.0956 0.66 -0.3894 3.18055e-015 1.59028e-015 -3.18055e-015 -5.0395 -0.09 2.4971 1.21671e-006 1.54349e-007 2.48639e-006 -3.7921 -1.552 1.4806 3.56286e-006 1.43017e-007 -9.62048e-007 -1.4655 -1.808 0.9609 2.20695e-032 1.59028e-015 -7.95139e-016 -4.9141 -1.269 0.3592 1.21671e-006 1.54349e-007 2.48639e-006 -3.1477 -1.685 0.8462 3.56286e-006 1.43017e-007 -9.62048e-007 -0.8055 -1.585 0.7955 2.20695e-032 1.59028e-015 -7.95139e-016 8.367 -8.2066 0.5982 10.5723 -14.8415 2.89819 2.1923 -43.463 -0.4932 -6.37899 12.9119 2.04079 0.7333 -45.8593 -2.6451 9.46482 13.6295 0.321504 -8.367 -8.2066 0.5982 -40.8784 -18.3728 -47.4334 -2.1923 -43.463 -0.4931 -165.04 68.9581 158.744 -0.7333 -45.8593 -2.6451 -11.2707 32.7581 -1.91716 
1.72823 3.79872 -9.65063 -122.359 -89.9975 -75.3593 0 -1.186 -1.5018 -1.38986 12.1879 -9.48987 -4.44089e-016 9.964 0.2134 -0.670924 24.4348 -19.3553 -1.77636e-015 13.134 -3.2573 -0.670926 24.4347 -19.3553 1.77636e-015 20.686 -1.6905 -0.677623 18.2746 12.069 0 7.238 -0.1237 -4.26296 0.47771 0.784612 1.7069 20.075 5.0056 -23.003 -0.392308 2.23471 13.6458 -0.047 -4.849 -13.9325 0.944119 2.45011 28.3255 -0.9759 2.2888 -68.0359 7.04631 -65.327 22.1583 -0.53 10.8316 -6.51219 2.57104 0.0273013 0.786 0.112 2.5817 6.36111e-015 3.57812e-015 -7.95139e-015 0.3601 -0.878 4.2331 6.36111e-015 5.96354e-015 -4.77083e-015 1.8127 -1.216 2.2227 5.73808e-031 5.1684e-015 -6.36111e-015 0.9571 1.114 1.7695 -6.36111e-015 1.59028e-015 -5.1684e-015 4.1246 0.487 4.1451 6.36111e-015 3.97569e-016 -5.1684e-015 3.4052 -1.454 2.7682 6.36111e-015 1.98785e-015 -9.54166e-015 1.4531 -1.795 1.2713 1.59028e-014 -1.98785e-015 -6.36111e-015 5.6954 0.21 2.1184 6.36111e-015 3.97569e-016 -5.1684e-015 3.9766 -1.54 2.3863 6.36111e-015 1.98785e-015 -9.54166e-015 1.4042 -1.926 1.125 1.59028e-014 -1.98785e-015 -6.36111e-015 2.0956 0.66 -0.3894 -6.36111e-015 1.59028e-015 -5.1684e-015 5.0395 -0.09 2.4971 6.36111e-015 3.97569e-016 -5.1684e-015 3.7921 -1.552 1.4806 6.36111e-015 1.98785e-015 -9.54166e-015 1.4655 -1.808 0.9609 1.59028e-014 -1.98785e-015 -6.36111e-015 4.9141 -1.269 0.3591 6.36111e-015 3.97569e-016 -5.1684e-015 3.1477 -1.685 0.8462 6.36111e-015 1.98785e-015 -9.54166e-015 0.8055 -1.585 0.7955 1.59028e-014 -1.98785e-015 -6.36111e-015 -1.7069 20.075 5.0056 -19.6485 -5.93961 1.54196 -13.6458 -0.047 -4.849 -29.4888 -5.60979 0.133699 -28.3255 -0.9759 2.2888 57.2912 -43.7648 156.619 -22.1583 -0.53 10.8316 6.49223 2.60877 0.0253928 -0.786 0.112 2.5817 9.78073e-007 6.7793e-007 -2.09237e-008 -0.3601 -0.878 4.2331 3.18055e-015 1.59028e-015 4.77083e-015 -1.8127 -1.216 2.2227 -1.10348e-031 1.59028e-015 3.97569e-015 -0.9571 1.114 1.7695 3.18055e-015 0 1.59028e-015 -4.1246 0.487 4.1451 9.78073e-007 6.7793e-007 -2.09237e-008 -3.4052 -1.454 2.7682 6.36111e-015 3.18055e-015 -0 -1.4531 -1.795 1.2713 -3.18055e-015 -1.59028e-015 3.18055e-015 -5.6954 0.21 2.1184 9.78073e-007 6.7793e-007 -2.09237e-008 -3.9766 -1.54 2.3863 6.36111e-015 3.18055e-015 -0 -1.4042 -1.926 1.125 -3.18055e-015 -1.59028e-015 3.18055e-015 -2.0956 0.66 -0.3894 3.18055e-015 0 1.59028e-015 -5.0395 -0.09 2.4971 9.78073e-007 6.7793e-007 -2.09237e-008 -3.7921 -1.552 1.4806 6.36111e-015 3.18055e-015 -0 -1.4655 -1.808 0.9609 -3.18055e-015 -1.59028e-015 3.18055e-015 -4.9141 -1.269 0.3592 9.78073e-007 6.7793e-007 -2.09237e-008 -3.1477 -1.685 0.8462 6.36111e-015 3.18055e-015 -0 -0.8055 -1.585 0.7955 -3.18055e-015 -1.59028e-015 3.18055e-015 8.367 -8.2066 0.5982 10.572 -14.838 2.89805 2.1923 -43.463 -0.4932 -6.37838 12.9055 2.04004 0.7333 -45.8593 -2.6451 9.46454 13.6324 0.321348 -8.367 -8.2066 0.5982 -40.7433 -18.4769 -47.3115 -2.1923 -43.463 -0.4931 -165.045 68.9549 158.758 -0.7333 -45.8593 -2.6451 -11.2613 32.7657 -1.91365 
